<svg height="512" viewBox="0 0 512 512" width="512" xmlns="http://www.w3.org/2000/svg"><g id="Image"><path d="m277.29 189.71a42.14 42.14 0 1 1 42.14 42.15 42.138 42.138 0 0 1 -42.14-42.15z" fill="#fff"/><path d="m361.57 189.71a42.14 42.14 0 1 1 -42.14-42.14 42.146 42.146 0 0 1 42.14 42.14z" fill="#fff"/><path d="m496 336v71.56l-201.86 1.33v-.89h-278.14v-100.71l112-115 166.14 165.92v-16.78l105.86-101.43z" fill="#fff"/><g fill="#ef8157"><path d="m504 104a8 8 0 0 0 -8-8h-480a8 8 0 0 0 -8 8v304a8 8 0 0 0 8 8h480a8 8 0 0 0 8-8zm-16 8v204.686l-82.343-82.343a8 8 0 0 0 -11.314 0l-106.343 106.343-154.343-154.343a8 8 0 0 0 -11.314 0l-98.343 98.343v-172.686zm-464 195.314 104-104 196.686 196.686h-300.686zm323.314 92.686-48-48 100.686-100.687 88 88v60.687z"/><path d="m320 232a48 48 0 1 0 -48-48 48.053 48.053 0 0 0 48 48zm0-80a32 32 0 1 1 -32 32 32.036 32.036 0 0 1 32-32z"/><path d="m96 368h-48a8 8 0 0 0 0 16h48a8 8 0 0 0 0-16z"/><path d="m128 368h-8a8 8 0 0 0 0 16h8a8 8 0 0 0 0-16z"/></g></g></svg>