<svg height="512pt" viewBox="0 -18 512.00016 512" width="512pt" xmlns="http://www.w3.org/2000/svg" xmlns:xlink="http://www.w3.org/1999/xlink"><linearGradient id="linear0" gradientUnits="userSpaceOnUse" x1="0" x2="512" y1="238.00008" y2="238.00008"><stop offset="0" stop-color="#00f2fe"/><stop offset=".0208" stop-color="#03effe"/><stop offset=".2931" stop-color="#24d2fe"/><stop offset=".5538" stop-color="#3cbdfe"/><stop offset=".7956" stop-color="#4ab0fe"/><stop offset="1" stop-color="#4facfe"/></linearGradient><path d="m432 0h-352c-44.113281 0-80 35.886719-80 80v280c0 44.113281 35.886719 80 80 80h273c11.046875 0 20-8.953125 20-20s-8.953125-20-20-20h-73.664062l-45.984376-59.65625 145.722657-185.347656 98.097656 108.421875c5.546875 6.136719 14.300781 8.21875 22.019531 5.246093 7.714844-2.976562 12.808594-10.394531 12.808594-18.664062v-170c0-44.113281-35.886719-80-80-80zm40 198.085938-79.167969-87.503907c-3.953125-4.371093-9.640625-6.785156-15.523437-6.570312-5.886719.207031-11.386719 2.996093-15.03125 7.628906l-154.117188 196.023437-52.320312-67.875c-3.785156-4.910156-9.636719-7.789062-15.839844-7.789062-.003906 0-.007812 0-.011719 0-6.203125.003906-12.058593 2.886719-15.839843 7.804688l-44.015626 57.21875c-6.734374 8.757812-5.097656 21.3125 3.65625 28.046874 8.757813 6.738282 21.3125 5.097657 28.050782-3.65625l28.175781-36.632812 88.816406 115.21875h-148.832031c-22.054688 0-40-17.945312-40-40v-280c0-22.054688 17.945312-40 40-40h352c22.054688 0 40 17.945312 40 40zm-332-126.085938c-33.085938 0-60 26.917969-60 60 0 33.085938 26.914062 60 60 60s60-26.914062 60-60c0-33.082031-26.914062-60-60-60zm0 80c-11.027344 0-20-8.972656-20-20s8.972656-20 20-20 20 8.972656 20 20-8.972656 20-20 20zm366.371094 190.089844c7.683594 7.9375 7.476562 20.597656-.460938 28.28125-3.882812 3.757812-8.898437 5.628906-13.90625 5.628906-5.230468 0-10.449218-2.035156-14.375-6.089844l-24.738281-25.554687v111.644531c0 11.046875-8.953125 20-20 20-11.042969 0-20-8.953125-20-20v-112.253906l-25.84375 25.492187c-7.867187 7.757813-20.53125 7.667969-28.285156-.195312-7.757813-7.863281-7.667969-20.527344.195312-28.28125l38.613281-38.085938c9.4375-9.464843 21.976563-14.675781 35.320313-14.675781 13.382813 0 25.960937 5.242188 35.410156 14.761719.058594.058593.117188.121093.175781.179687zm0 0" fill="#ef8157"/></svg>